<svg width="113" height="140" viewBox="0 0 113 140" fill="none" xmlns="http://www.w3.org/2000/svg"><path d="M28.27 60.107v49.312L0 124.848v-78.78L82.701 1.05v29.415L28.27 60.107zM82.701 30.41v49.217L28.27 109.324v29.469l82.701-45.181V14.98l-28.27 15.43zM65.582 71.608c-2.867 0-4.521-2.294-4.521-6.304 0-4.009 1.654-6.33 4.521-6.33s4.521 2.308 4.521 6.33c0 4.023-1.695 6.304-4.521 6.304zM45.486 80.91c-2.867 0-4.521-2.295-4.521-6.304 0-4.01 1.654-6.33 4.52-6.33 2.868 0 4.522 2.307 4.522 6.33s-1.696 6.304-4.563 6.304h.042z" fill="#E8FF26"/></svg>